<svg viewBox="0 0 1250 612" xmlns="http://www.w3.org/2000/svg" font-family="Helvetica,Arial,sans-serif">
<defs><marker id="ah" markerWidth="9" markerHeight="9" refX="7" refY="4.5" orient="auto"><path d="M0,0 L9,4.5 L0,9 z" fill="#5b3f96"/></marker><marker id="ahs" markerWidth="8" markerHeight="8" refX="6" refY="4" orient="auto"><path d="M0,0 L8,4 L0,8 z" fill="#6a4fa3"/></marker><marker id="ar" markerWidth="7" markerHeight="7" refX="3.5" refY="3.5" orient="auto"><path d="M0,0 L7,3.5 L0,7 z" fill="#c0392b"/></marker></defs>
<rect x="0" y="0" width="1250" height="612" fill="white"/>
<text x="625" y="40" font-family="Helvetica,Arial,sans-serif" font-size="18" fill="#3f2a7a" font-weight="bold" text-anchor="middle">sMTJ p-bit / reservoir compute architecture</text>
<text x="625" y="62" font-family="Helvetica,Arial,sans-serif" font-size="13" fill="#6a4fa3" font-weight="normal" text-anchor="middle" font-style="italic">device  →  XNOR-CIM array  →  sky130 CMOS periphery  →  system</text>
<rect x="36" y="95" width="200" height="360" rx="12" fill="#ece9f6" stroke="#6a4fa3" stroke-width="2"/>
<text x="136" y="121" font-family="Helvetica,Arial,sans-serif" font-size="15" fill="#3f2a7a" font-weight="bold" text-anchor="middle">SOT-MTJ device</text>
<text x="136" y="140" font-family="Helvetica,Arial,sans-serif" font-size="11" fill="#6a4fa3" font-weight="normal" text-anchor="middle" font-style="italic">(entropy + compute)</text>
<rect x="94" y="280" width="84" height="13" rx="3" fill="#b9a7e0" stroke="#6a4fa3" stroke-width="1.6"/>
<line x1="100" y1="293" x2="95" y2="301" stroke="#6a4fa3" stroke-width="1"/>
<line x1="112" y1="293" x2="107" y2="301" stroke="#6a4fa3" stroke-width="1"/>
<line x1="124" y1="293" x2="119" y2="301" stroke="#6a4fa3" stroke-width="1"/>
<line x1="136" y1="293" x2="131" y2="301" stroke="#6a4fa3" stroke-width="1"/>
<line x1="148" y1="293" x2="143" y2="301" stroke="#6a4fa3" stroke-width="1"/>
<line x1="160" y1="293" x2="155" y2="301" stroke="#6a4fa3" stroke-width="1"/>
<line x1="172" y1="293" x2="167" y2="301" stroke="#6a4fa3" stroke-width="1"/>
<line x1="78" y1="286" x2="94" y2="286" stroke="#6a4fa3" stroke-width="1.6"/>
<line x1="178" y1="286" x2="194" y2="286" stroke="#6a4fa3" stroke-width="1.6"/>
<text x="72" y="290" font-family="Helvetica,Arial,sans-serif" font-size="11" fill="#6a4fa3" font-weight="normal" text-anchor="end">T1</text>
<text x="200" y="290" font-family="Helvetica,Arial,sans-serif" font-size="11" fill="#6a4fa3" font-weight="normal" text-anchor="start">T2</text>
<rect x="116" y="256" width="40" height="22" fill="#e8e1f6" stroke="#6a4fa3" stroke-width="1.6"/>
<line x1="136" y1="260" x2="136" y2="274" stroke="#c0392b" stroke-width="2" marker-start="url(#ar)" marker-end="url(#ar)"/>
<text x="182" y="271" font-family="Helvetica,Arial,sans-serif" font-size="10" fill="#c0392b" font-weight="normal" text-anchor="start">free</text>
<line x1="116" y1="254" x2="156" y2="254" stroke="#6a4fa3" stroke-width="2"/>
<text x="182" y="252" font-family="Helvetica,Arial,sans-serif" font-size="10" fill="#6a4fa3" font-weight="normal" text-anchor="start">MgO</text>
<rect x="116" y="228" width="40" height="24" fill="#c9bbe8" stroke="#6a4fa3" stroke-width="1.6"/>
<line x1="127" y1="240" x2="145" y2="240" stroke="#6a4fa3" stroke-width="2" marker-end="url(#ahs)"/>
<text x="182" y="238" font-family="Helvetica,Arial,sans-serif" font-size="10" fill="#6a4fa3" font-weight="normal" text-anchor="start">pinned</text>
<line x1="136" y1="278" x2="136" y2="280" stroke="#6a4fa3" stroke-width="1.6"/>
<line x1="136" y1="228" x2="136" y2="204" stroke="#6a4fa3" stroke-width="1.6"/>
<text x="136" y="198" font-family="Helvetica,Arial,sans-serif" font-size="10" fill="#6a4fa3" font-weight="normal" text-anchor="middle">read</text>
<text x="136" y="408" font-family="Helvetica,Arial,sans-serif" font-size="11" fill="#2b2b2b" font-weight="normal" text-anchor="middle">P_sw(V) = σ((V−V_th)/V_T)</text>
<text x="136" y="428" font-family="Helvetica,Arial,sans-serif" font-size="10" fill="#6a4fa3" font-weight="normal" text-anchor="middle" font-style="italic">thermal stochastic switching</text>
<rect x="300" y="95" width="230" height="360" rx="12" fill="#ece9f6" stroke="#6a4fa3" stroke-width="2"/>
<text x="415" y="121" font-family="Helvetica,Arial,sans-serif" font-size="14" fill="#3f2a7a" font-weight="bold" text-anchor="middle">2T SOT-MTJ XNOR-CIM</text>
<text x="415" y="140" font-family="Helvetica,Arial,sans-serif" font-size="11" fill="#6a4fa3" font-weight="normal" text-anchor="middle" font-style="italic">array  (N rows × M cols)</text>
<line x1="360" y1="185" x2="360" y2="388" stroke="#6a4fa3" stroke-width="1.1"/>
<line x1="415" y1="185" x2="415" y2="388" stroke="#6a4fa3" stroke-width="1.1"/>
<line x1="470" y1="185" x2="470" y2="388" stroke="#6a4fa3" stroke-width="1.1"/>
<line x1="338" y1="210" x2="492" y2="210" stroke="#6a4fa3" stroke-width="1.1"/>
<line x1="338" y1="285" x2="492" y2="285" stroke="#6a4fa3" stroke-width="1.1"/>
<line x1="338" y1="360" x2="492" y2="360" stroke="#6a4fa3" stroke-width="1.1"/>
<rect x="349" y="216" width="22" height="4" rx="2" fill="#b9a7e0" stroke="#6a4fa3" stroke-width="1"/>
<rect x="355" y="209" width="10" height="6" fill="#e8e1f6" stroke="#6a4fa3" stroke-width="1"/>
<rect x="355" y="201" width="10" height="6" fill="#c9bbe8" stroke="#6a4fa3" stroke-width="1"/>
<line x1="360" y1="209" x2="360" y2="214" stroke="#c0392b" stroke-width="1.2"/>
<rect x="349" y="291" width="22" height="4" rx="2" fill="#b9a7e0" stroke="#6a4fa3" stroke-width="1"/>
<rect x="355" y="284" width="10" height="6" fill="#e8e1f6" stroke="#6a4fa3" stroke-width="1"/>
<rect x="355" y="276" width="10" height="6" fill="#c9bbe8" stroke="#6a4fa3" stroke-width="1"/>
<line x1="360" y1="284" x2="360" y2="289" stroke="#c0392b" stroke-width="1.2"/>
<rect x="349" y="366" width="22" height="4" rx="2" fill="#b9a7e0" stroke="#6a4fa3" stroke-width="1"/>
<rect x="355" y="359" width="10" height="6" fill="#e8e1f6" stroke="#6a4fa3" stroke-width="1"/>
<rect x="355" y="351" width="10" height="6" fill="#c9bbe8" stroke="#6a4fa3" stroke-width="1"/>
<line x1="360" y1="359" x2="360" y2="364" stroke="#c0392b" stroke-width="1.2"/>
<rect x="404" y="216" width="22" height="4" rx="2" fill="#b9a7e0" stroke="#6a4fa3" stroke-width="1"/>
<rect x="410" y="209" width="10" height="6" fill="#e8e1f6" stroke="#6a4fa3" stroke-width="1"/>
<rect x="410" y="201" width="10" height="6" fill="#c9bbe8" stroke="#6a4fa3" stroke-width="1"/>
<line x1="415" y1="209" x2="415" y2="214" stroke="#c0392b" stroke-width="1.2"/>
<rect x="404" y="291" width="22" height="4" rx="2" fill="#b9a7e0" stroke="#6a4fa3" stroke-width="1"/>
<rect x="410" y="284" width="10" height="6" fill="#e8e1f6" stroke="#6a4fa3" stroke-width="1"/>
<rect x="410" y="276" width="10" height="6" fill="#c9bbe8" stroke="#6a4fa3" stroke-width="1"/>
<line x1="415" y1="284" x2="415" y2="289" stroke="#c0392b" stroke-width="1.2"/>
<rect x="404" y="366" width="22" height="4" rx="2" fill="#b9a7e0" stroke="#6a4fa3" stroke-width="1"/>
<rect x="410" y="359" width="10" height="6" fill="#e8e1f6" stroke="#6a4fa3" stroke-width="1"/>
<rect x="410" y="351" width="10" height="6" fill="#c9bbe8" stroke="#6a4fa3" stroke-width="1"/>
<line x1="415" y1="359" x2="415" y2="364" stroke="#c0392b" stroke-width="1.2"/>
<rect x="459" y="216" width="22" height="4" rx="2" fill="#b9a7e0" stroke="#6a4fa3" stroke-width="1"/>
<rect x="465" y="209" width="10" height="6" fill="#e8e1f6" stroke="#6a4fa3" stroke-width="1"/>
<rect x="465" y="201" width="10" height="6" fill="#c9bbe8" stroke="#6a4fa3" stroke-width="1"/>
<line x1="470" y1="209" x2="470" y2="214" stroke="#c0392b" stroke-width="1.2"/>
<rect x="459" y="291" width="22" height="4" rx="2" fill="#b9a7e0" stroke="#6a4fa3" stroke-width="1"/>
<rect x="465" y="284" width="10" height="6" fill="#e8e1f6" stroke="#6a4fa3" stroke-width="1"/>
<rect x="465" y="276" width="10" height="6" fill="#c9bbe8" stroke="#6a4fa3" stroke-width="1"/>
<line x1="470" y1="284" x2="470" y2="289" stroke="#c0392b" stroke-width="1.2"/>
<rect x="459" y="366" width="22" height="4" rx="2" fill="#b9a7e0" stroke="#6a4fa3" stroke-width="1"/>
<rect x="465" y="359" width="10" height="6" fill="#e8e1f6" stroke="#6a4fa3" stroke-width="1"/>
<rect x="465" y="351" width="10" height="6" fill="#c9bbe8" stroke="#6a4fa3" stroke-width="1"/>
<line x1="470" y1="359" x2="470" y2="364" stroke="#c0392b" stroke-width="1.2"/>
<text x="415" y="415" font-family="Helvetica,Arial,sans-serif" font-size="12" fill="#2b2b2b" font-weight="normal" text-anchor="middle">I_col ∝ Σ XNOR(x, w)</text>
<text x="415" y="433" font-family="Helvetica,Arial,sans-serif" font-size="10" fill="#6a4fa3" font-weight="normal" text-anchor="middle" font-style="italic">Kirchhoff popcount</text>
<rect x="594" y="95" width="380" height="360" rx="12" fill="#ece9f6" stroke="#6a4fa3" stroke-width="2"/>
<text x="784" y="119" font-family="Helvetica,Arial,sans-serif" font-size="15" fill="#3f2a7a" font-weight="bold" text-anchor="middle">sky130 CMOS periphery</text>
<rect x="610" y="135" width="348" height="58" rx="12" fill="#e0d8f1" stroke="#6a4fa3" stroke-width="2"/>
<text x="784" y="157" font-family="Helvetica,Arial,sans-serif" font-size="12" fill="#3f2a7a" font-weight="bold" text-anchor="middle">write path</text>
<text x="784" y="177" font-family="Helvetica,Arial,sans-serif" font-size="11" fill="#2b2b2b" font-weight="normal" text-anchor="middle">R-string DAC · IR pre-distortion · CMOS driver  → BL/SL</text>
<rect x="610" y="201" width="348" height="70" rx="12" fill="#e0d8f1" stroke="#6a4fa3" stroke-width="2"/>
<text x="784" y="222" font-family="Helvetica,Arial,sans-serif" font-size="12" fill="#3f2a7a" font-weight="bold" text-anchor="middle">read path</text>
<text x="784" y="242" font-family="Helvetica,Arial,sans-serif" font-size="11" fill="#2b2b2b" font-weight="normal" text-anchor="middle">TIA + StrongARM  → p-bit</text>
<text x="784" y="260" font-family="Helvetica,Arial,sans-serif" font-size="11" fill="#2b2b2b" font-weight="normal" text-anchor="middle">| column-shared SAR  → reservoir   ← RBL</text>
<rect x="610" y="279" width="168" height="56" rx="12" fill="#e0d8f1" stroke="#6a4fa3" stroke-width="2"/>
<text x="694" y="301" font-family="Helvetica,Arial,sans-serif" font-size="11" fill="#3f2a7a" font-weight="bold" text-anchor="middle">row / col decode</text>
<text x="694" y="319" font-family="Helvetica,Arial,sans-serif" font-size="10" fill="#2b2b2b" font-weight="normal" text-anchor="middle">+ WL drivers</text>
<rect x="790" y="279" width="168" height="56" rx="12" fill="#e0d8f1" stroke="#6a4fa3" stroke-width="2"/>
<text x="874" y="301" font-family="Helvetica,Arial,sans-serif" font-size="11" fill="#3f2a7a" font-weight="bold" text-anchor="middle">mode &amp; timing</text>
<text x="874" y="319" font-family="Helvetica,Arial,sans-serif" font-size="10" fill="#2b2b2b" font-weight="normal" text-anchor="middle">controller</text>
<text x="784" y="443" font-family="Helvetica,Arial,sans-serif" font-size="10" fill="#6a4fa3" font-weight="normal" text-anchor="middle" font-style="italic">couples to the array via BL/SL · WWL/RWL · RBL</text>
<rect x="1038" y="95" width="176" height="360" rx="12" fill="#ece9f6" stroke="#6a4fa3" stroke-width="2"/>
<text x="1126" y="121" font-family="Helvetica,Arial,sans-serif" font-size="14" fill="#3f2a7a" font-weight="bold" text-anchor="middle">operating modes</text>
<text x="1126" y="140" font-family="Helvetica,Arial,sans-serif" font-size="11" fill="#6a4fa3" font-weight="normal" text-anchor="middle" font-style="italic">(time-multiplexed)</text>
<rect x="1052" y="159" width="148" height="92" rx="12" fill="#e0d8f1" stroke="#6a4fa3" stroke-width="2"/>
<text x="1126" y="183" font-family="Helvetica,Arial,sans-serif" font-size="12" fill="#3f2a7a" font-weight="bold" text-anchor="middle">p-bit inference</text>
<text x="1126" y="205" font-family="Helvetica,Arial,sans-serif" font-size="11" fill="#2b2b2b" font-weight="normal" text-anchor="middle">T Bernoulli</text>
<text x="1126" y="223" font-family="Helvetica,Arial,sans-serif" font-size="11" fill="#2b2b2b" font-weight="normal" text-anchor="middle">samples → E[s]</text>
<rect x="1052" y="263" width="148" height="100" rx="12" fill="#e0d8f1" stroke="#6a4fa3" stroke-width="2"/>
<text x="1126" y="287" font-family="Helvetica,Arial,sans-serif" font-size="12" fill="#3f2a7a" font-weight="bold" text-anchor="middle">reservoir</text>
<text x="1126" y="309" font-family="Helvetica,Arial,sans-serif" font-size="11" fill="#2b2b2b" font-weight="normal" text-anchor="middle">low-Δ free</text>
<text x="1126" y="327" font-family="Helvetica,Arial,sans-serif" font-size="11" fill="#2b2b2b" font-weight="normal" text-anchor="middle">evolution →</text>
<text x="1126" y="345" font-family="Helvetica,Arial,sans-serif" font-size="11" fill="#2b2b2b" font-weight="normal" text-anchor="middle">shared read-out</text>
<line x1="236" y1="300" x2="300" y2="300" stroke="#5b3f96" stroke-width="3" marker-end="url(#ah)"/>
<line x1="530" y1="300" x2="594" y2="300" stroke="#5b3f96" stroke-width="3" marker-end="url(#ah)"/>
<line x1="974" y1="300" x2="1038" y2="300" stroke="#5b3f96" stroke-width="3" marker-end="url(#ah)"/>
<text x="268" y="292" font-family="Helvetica,Arial,sans-serif" font-size="10" fill="#2b2b2b" font-weight="normal" text-anchor="middle">cell</text>
<text x="562" y="292" font-family="Helvetica,Arial,sans-serif" font-size="10" fill="#2b2b2b" font-weight="normal" text-anchor="middle">I_col</text>
<text x="1006" y="292" font-family="Helvetica,Arial,sans-serif" font-size="10" fill="#2b2b2b" font-weight="normal" text-anchor="middle">code</text>
<line x1="1126" y1="455" x2="1126" y2="482" stroke="#5b3f96" stroke-width="1.6" stroke-dasharray="6 4"/>
<line x1="1126" y1="482" x2="415" y2="482" stroke="#5b3f96" stroke-width="1.6" stroke-dasharray="6 4"/>
<line x1="415" y1="482" x2="415" y2="455" stroke="#5b3f96" stroke-width="2.2" marker-end="url(#ah)" stroke-dasharray="6 4"/>
<text x="770" y="476" font-family="Helvetica,Arial,sans-serif" font-size="11" fill="#c0392b" font-weight="normal" text-anchor="middle" font-style="italic">closed-loop sampling  x(r+1)</text>
<text x="40" y="506" font-family="Helvetica,Arial,sans-serif" font-size="12" fill="#3f2a7a" font-weight="bold" text-anchor="start">abstraction layer  ↔  grounding:</text>
<rect x="36" y="520" width="200" height="70" rx="12" fill="#f4f1fb" stroke="#6a4fa3" stroke-width="2"/>
<text x="136.0" y="543" font-family="Helvetica,Arial,sans-serif" font-size="12" fill="#3f2a7a" font-weight="bold" text-anchor="middle">device</text>
<text x="136.0" y="563" font-family="Helvetica,Arial,sans-serif" font-size="9.5" fill="#2b2b2b" font-weight="normal" text-anchor="middle">wafer-calibrated compact model +</text>
<text x="136.0" y="579" font-family="Helvetica,Arial,sans-serif" font-size="9.5" fill="#2b2b2b" font-weight="normal" text-anchor="middle">LLG cross-check</text>
<rect x="300" y="520" width="230" height="70" rx="12" fill="#f4f1fb" stroke="#6a4fa3" stroke-width="2"/>
<text x="415.0" y="543" font-family="Helvetica,Arial,sans-serif" font-size="12" fill="#3f2a7a" font-weight="bold" text-anchor="middle">array</text>
<text x="415.0" y="563" font-family="Helvetica,Arial,sans-serif" font-size="9.5" fill="#2b2b2b" font-weight="normal" text-anchor="middle">behavioural XNOR-CIM, T-step</text>
<text x="415.0" y="579" font-family="Helvetica,Arial,sans-serif" font-size="9.5" fill="#2b2b2b" font-weight="normal" text-anchor="middle">unroll</text>
<rect x="594" y="520" width="380" height="70" rx="12" fill="#fbecec" stroke="#c0392b" stroke-width="2"/>
<text x="784.0" y="543" font-family="Helvetica,Arial,sans-serif" font-size="12" fill="#c0392b" font-weight="bold" text-anchor="middle">periphery</text>
<text x="784.0" y="563" font-family="Helvetica,Arial,sans-serif" font-size="9.5" fill="#c0392b" font-weight="normal" text-anchor="middle">sky130 EXTRACTED — StrongARM read</text>
<text x="784.0" y="579" font-family="Helvetica,Arial,sans-serif" font-size="9.5" fill="#c0392b" font-weight="normal" text-anchor="middle">48 fJ · write-line IR · SAR cap-DAC</text>
<rect x="1038" y="520" width="176" height="70" rx="12" fill="#f4f1fb" stroke="#6a4fa3" stroke-width="2"/>
<text x="1126.0" y="543" font-family="Helvetica,Arial,sans-serif" font-size="12" fill="#3f2a7a" font-weight="bold" text-anchor="middle">system</text>
<text x="1126.0" y="563" font-family="Helvetica,Arial,sans-serif" font-size="9.5" fill="#2b2b2b" font-weight="normal" text-anchor="middle">PPA energy / latency model</text>
</svg>